<?xml version="1.0" encoding="UTF-8"?>
<svg viewBox="0 0 48 48" version="1.1" xmlns="http://www.w3.org/2000/svg" xmlns:xlink="http://www.w3.org/1999/xlink">
    <!-- Generator: Sketch 49.2 (51160) - http://www.bohemiancoding.com/sketch -->
    <title>Wordpress</title>
    <desc>Created with Sketch.</desc>
    <defs></defs>
    <g id="Page-1" stroke="none" stroke-width="1" fill="none" fill-rule="evenodd">
        <g id="Social-Icons---Isolated" transform="translate(-164.000000, -1623.000000)" fill="#00759D">
            <path d="M164,1646.99925 C164,1643.51914 164.747023,1640.21604 166.077565,1637.23244 L177.525923,1668.59842 C169.520173,1664.7088 164,1656.49905 164,1646.99925 Z M204.201556,1645.78871 C204.201556,1647.84228 203.411032,1650.22585 202.375999,1653.54695 L199.980424,1661.5452 L191.307153,1635.7474 C192.751698,1635.6709 194.053739,1635.51789 194.053739,1635.51789 C195.34678,1635.36639 195.195275,1633.46433 193.900734,1633.54083 C193.900734,1633.54083 190.014113,1633.84534 187.504535,1633.84534 C185.146461,1633.84534 181.183337,1633.54083 181.183337,1633.54083 C179.888797,1633.46433 179.737292,1635.44139 181.030332,1635.51789 C181.030332,1635.51789 182.25587,1635.6709 183.548911,1635.7474 L187.287028,1645.99122 L182.033864,1661.74321 L173.29459,1635.7474 C174.740636,1635.6709 176.041176,1635.51789 176.041176,1635.51789 C177.334217,1635.36639 177.181212,1633.46433 175.888172,1633.54083 C175.888172,1633.54083 172.00155,1633.84534 169.491972,1633.84534 C169.041958,1633.84534 168.510941,1633.83484 167.946923,1633.81684 C172.238557,1627.30213 179.614288,1623 187.99955,1623 C194.247245,1623 199.936923,1625.38807 204.206056,1629.3002 C204.102553,1629.2942 204.00205,1629.2807 203.895547,1629.2807 C201.537473,1629.2807 199.864921,1631.33426 199.864921,1633.54083 C199.864921,1635.51789 201.006456,1637.19194 202.222994,1639.17051 C203.135023,1640.76806 204.201556,1642.82162 204.201556,1645.78871 Z M209.059908,1635.48534 C210.933467,1638.90395 212,1642.82657 212,1646.9997 C212,1655.85298 207.20135,1663.58422 200.065627,1667.74385 L207.396356,1646.54969 C208.765899,1643.12508 209.221913,1640.38749 209.221913,1637.95292 C209.221913,1637.06939 209.163411,1636.25036 209.059908,1635.48534 Z M188.421063,1649.09872 L195.798294,1669.31035 C195.846295,1669.42885 195.906297,1669.53685 195.969299,1669.64036 C193.474721,1670.51788 190.794137,1671.0009 187.99955,1671.0009 C185.644476,1671.0009 183.370405,1670.65589 181.219338,1670.02287 L188.421063,1649.09872 Z" id="Wordpress"></path>
        </g>
    </g>
</svg>